<svg width="53" height="49" viewBox="0 0 53 49" fill="none" xmlns="http://www.w3.org/2000/svg">
<g clip-path="url(#clip0_3001_383)">
<path d="M13.59 30.2647C13.5521 29.7226 13.3103 29.215 12.9133 28.8439C12.5163 28.4729 11.9934 28.2659 11.45 28.2647V26.5047C11.4513 26.3529 11.4226 26.2022 11.3654 26.0616C11.3082 25.9209 11.2237 25.7929 11.1167 25.6851C11.0098 25.5772 10.8826 25.4916 10.7424 25.4332C10.6022 25.3748 10.4519 25.3447 10.3 25.3447H5.60001C5.29236 25.3447 4.99731 25.4669 4.77977 25.6845C4.56223 25.902 4.44001 26.1971 4.44001 26.5047V28.2647C3.89589 28.2636 3.37176 28.4697 2.97423 28.8412C2.57669 29.2128 2.33561 29.7218 2.30001 30.2647L0.920013 48.7547H14.78L13.59 30.2647ZM6.23001 26.6647H9.66001C9.65824 27.0151 9.54891 27.3564 9.34681 27.6426C9.1447 27.9287 8.85958 28.1459 8.53001 28.2647H7.37001C7.03937 28.1463 6.7529 27.9295 6.5491 27.6435C6.34531 27.3575 6.23395 27.0159 6.23001 26.6647ZM4.43001 30.2647H11.43C11.4479 30.2633 11.4659 30.2657 11.4828 30.2716C11.4998 30.2775 11.5153 30.2869 11.5285 30.2991C11.5416 30.3113 11.5521 30.3261 11.5593 30.3426C11.5664 30.359 11.5701 30.3768 11.57 30.3947L11.65 31.6347H4.20001L4.29001 30.3947C4.28996 30.3768 4.29362 30.359 4.30077 30.3426C4.30792 30.3261 4.3184 30.3113 4.33155 30.2991C4.34471 30.2869 4.36024 30.2775 4.37719 30.2716C4.39413 30.2657 4.41212 30.2633 4.43001 30.2647ZM4.05001 33.6347H11.8L12.65 46.7447H3.08001L4.05001 33.6347Z" fill="black"/>
<path d="M38.27 46.7449C38.8426 46.0699 39.2616 45.2785 39.4982 44.4256C39.7347 43.5726 39.7831 42.6785 39.64 41.8049V41.7349H48.17V39.2649H52.24V10.4649C52.24 9.96899 52.043 9.49335 51.6923 9.14266C51.3416 8.79196 50.866 8.59495 50.37 8.59495H28.66L25.52 4.10495C24.994 3.36236 24.3112 2.74445 23.52 2.29495C21.69 1.20495 17.66 -0.465054 11.58 0.614946C2.81001 2.16495 -0.239985 12.1249 1.4619e-05 15.0449C0.019512 17.8142 0.647676 20.5454 1.84001 23.0449L2.21001 23.7449L21.04 18.8749L22.71 19.6649V24.5449H21.53L20.94 28.1549H17.87C17.1981 28.1549 16.5535 28.4212 16.0775 28.8954C15.6014 29.3695 15.3327 30.013 15.33 30.6849V37.3349H17.33V30.6649C17.3326 30.5235 17.3907 30.3887 17.4917 30.2896C17.5927 30.1904 17.7285 30.1349 17.87 30.1349H20.61L18.7 41.8049C18.5567 42.6764 18.6043 43.5687 18.8396 44.42C19.0748 45.2713 19.4922 46.0613 20.0627 46.7355C20.6333 47.4097 21.3434 47.952 22.1441 48.3248C22.9447 48.6977 23.8168 48.8922 24.7 48.8949H33.6C34.4882 48.8994 35.3666 48.7093 36.1734 48.3378C36.9803 47.9664 37.6959 47.4227 38.27 46.7449ZM32.35 26.5249L36.08 25.5249L35.16 26.8949L36.87 37.2649H21.47L23.23 26.5049L32.35 26.5249ZM49.19 10.5949H50.19V37.2649H48.16V10.5949H49.19ZM39.67 16.0549C38.5066 17.7444 37.0091 19.1772 35.27 20.2649C32.2 21.5549 28.62 20.2649 28.61 20.2649L23.29 17.7749L30.39 13.7749L39.67 16.0549ZM22.54 4.05495C23.0678 4.35816 23.5247 4.77071 23.88 5.26495L28.81 12.2649L24.13 14.9149C21.44 8.00495 17.64 4.18495 15.1 2.26495H15.41C17.8995 2.20892 20.3594 2.81269 22.54 4.01495V4.05495ZM11.88 2.59495C13.09 3.21495 18.83 6.59495 22.37 15.9549L20.77 16.8649L8.91001 19.9349C8.43192 17.6818 8.09791 15.4005 7.91001 13.1049C7.67043 9.41512 8.76732 5.76237 11 2.81495C11.26 2.73495 11.56 2.65495 11.88 2.59495ZM2.00001 15.0149V14.8949C1.84001 13.2649 3.37001 7.48495 7.66001 4.40495C6.30501 7.15029 5.73076 10.2153 6.00001 13.2649C6.18044 15.6672 6.51446 18.0554 7.00001 20.4149L3.30001 21.3649C2.48601 19.3444 2.04554 17.1928 2.00001 15.0149ZM24.71 20.5849L27.82 22.0349C29.2255 22.5379 30.7072 22.795 32.2 22.7949C33.5519 22.8073 34.8922 22.5453 36.14 22.0249L36.28 21.9449C37.2 21.3449 41.82 18.2049 41.89 15.3549V14.5649L30.89 11.7549L30.08 10.5949H46.16V39.7349H39.3L37.3 27.3449L38.53 25.4849C38.687 25.2305 38.7639 24.9347 38.7505 24.6361C38.7372 24.3374 38.6343 24.0496 38.4553 23.8102C38.2763 23.5707 38.0293 23.3907 37.7466 23.2935C37.4639 23.1962 37.1585 23.1863 36.87 23.2649L32.22 24.5649H24.72L24.71 20.5849ZM24.71 46.8949C24.1197 46.8883 23.5378 46.7542 23.0041 46.5018C22.4704 46.2495 21.9974 45.8849 21.6176 45.4329C21.2378 44.9809 20.9601 44.4523 20.8035 43.8831C20.6468 43.3139 20.6149 42.7176 20.71 42.1349L21.14 39.2649H37.2L37.67 42.1149C37.764 42.7027 37.7295 43.3038 37.569 43.8769C37.4085 44.45 37.1256 44.9816 36.74 45.4349C36.356 45.8874 35.8779 46.2507 35.339 46.4994C34.8001 46.7481 34.2135 46.8763 33.62 46.8749L24.71 46.8949Z" fill="black"/>
</g>
<defs>
<clipPath id="clip0_3001_383">
<rect width="52.23" height="48.63" fill="white" transform="translate(0 0.264648)"/>
</clipPath>
</defs>
</svg>
