<svg width="56" height="47" viewBox="0 0 56 47" fill="none" xmlns="http://www.w3.org/2000/svg">
<g clip-path="url(#clip0_3001_440)">
<path d="M47 30.8351C43 29.2251 42.35 28.0151 42.35 28.0151L36.35 11.9451C36.2519 10.7012 36.0377 9.46914 35.71 8.26513C35.4387 7.79148 35.0532 7.39328 34.5886 7.10682C34.124 6.82036 33.595 6.65477 33.05 6.62513C31.65 6.42513 28.94 6.62513 26.15 10.1251C22.15 8.12513 22.68 1.79513 22.69 1.73513L22.76 0.905128L22 0.675128C13.41 -1.73487 7.14 7.26513 5.79 9.42513C5.45259 9.47409 5.1186 9.54423 4.79 9.63513C3.33338 9.98159 2.03448 10.8053 1.1 11.9751C0.61787 12.6432 0.279992 13.4043 0.107836 14.21C-0.0643207 15.0157 -0.0669895 15.8483 0.0999986 16.6551C0.187493 17.2512 0.38051 17.8268 0.669999 18.3551C1.12234 19.0827 1.65943 19.7541 2.27 20.3551L2.63 20.7351C3.31 21.4651 4.02 22.1651 4.73 22.8051C6.5602 24.4503 8.57341 25.8797 10.73 27.0651C11.35 27.4151 11.99 27.7451 12.62 28.0651C13.62 28.5651 14.5 29.0651 15.38 29.5751C16.6312 30.3187 17.6898 31.3464 18.47 32.5751C18.73 33.0051 19 33.4451 19.26 33.8951C22.34 38.9751 26.18 45.3751 38 46.2651C38.76 46.3151 39.49 46.3451 40.2 46.3451C51.13 46.3451 55.63 39.9651 55.95 37.5851C56.26 35.4851 53.66 33.5351 47 30.8351ZM54 37.2651C53.9406 37.5437 53.8359 37.8106 53.69 38.0551C51.69 40.0551 41 40.2551 35.16 38.8851C32.4798 38.1046 30.1694 36.3869 28.65 34.0451C30.219 34.6275 31.8683 34.9648 33.54 35.0451C33.7564 35.0604 33.9736 35.0604 34.19 35.0451C35.406 34.8581 36.5082 34.2232 37.28 33.2651C38.42 32.1251 39.61 30.9351 43.16 31.2651C44.1508 31.8298 45.18 32.3243 46.24 32.7451C54.1 35.8751 54 37.2651 54 37.2651ZM16.5 14.2651C17.3422 15.1187 18.3683 15.7686 19.5 16.1651C20.5194 16.3723 21.5619 16.4429 22.6 16.3751C24.35 16.3751 26.53 16.3251 27.14 17.2051C28.29 18.8551 28.29 19.2751 28.32 23.3151V24.0951C28.2809 27.0175 28.9681 29.9039 30.32 32.4951C29.0997 32.1282 27.9039 31.6839 26.74 31.1651C26.46 30.6851 26.21 30.2651 25.99 29.9451C24.17 27.2651 18.44 22.3951 14 18.8251L13.44 18.3551C14.0853 17.87 14.6636 17.3018 15.16 16.6651C15.7076 15.9258 16.158 15.1192 16.5 14.2651ZM32.31 8.56513C32.8469 8.54077 33.3782 8.68405 33.83 8.97513C34.071 9.82146 34.2318 10.6886 34.31 11.5651C33.31 11.9551 31.53 12.0451 28.1 10.8851C29.9 8.89513 31.48 8.56513 32.31 8.56513ZM19.14 2.26513C19.6497 2.26798 20.1583 2.31482 20.66 2.40513C20.66 4.61513 21.08 10.3151 25.86 12.1851C29.93 13.7751 32.71 14.1851 34.86 13.4951L35.49 15.2651C34.2443 15.3364 33.0215 15.6311 31.88 16.1351C31.7297 16.2107 31.6092 16.3346 31.5379 16.4869C31.4665 16.6392 31.4484 16.8111 31.4864 16.9749C31.5245 17.1388 31.6166 17.2851 31.7478 17.3903C31.879 17.4955 32.0418 17.5536 32.21 17.5551C32.3238 17.5561 32.4364 17.5323 32.54 17.4851C33.6444 17.0049 34.8357 16.7564 36.04 16.7551L36.76 18.6951C35.5738 18.7907 34.4116 19.0812 33.32 19.5551C33.169 19.6311 33.0481 19.7559 32.9768 19.9092C32.9056 20.0625 32.8883 20.2354 32.9277 20.3998C32.967 20.5642 33.0608 20.7105 33.1937 20.8149C33.3266 20.9193 33.491 20.9758 33.66 20.9751C33.7707 20.9771 33.8802 20.9531 33.98 20.9051C35.0334 20.4519 36.1636 20.2041 37.31 20.1751L37.93 21.8451C36.6354 21.8969 35.3625 22.1956 34.18 22.7251C34.0297 22.8007 33.9092 22.9246 33.8379 23.0769C33.7665 23.2292 33.7484 23.4011 33.7864 23.5649C33.8245 23.7288 33.9166 23.8751 34.0478 23.9803C34.179 24.0855 34.3418 24.1436 34.51 24.1451C34.6207 24.1471 34.7302 24.1231 34.83 24.0751C35.9816 23.5679 37.2323 23.3253 38.49 23.3651L39.2 25.2651C37.7457 25.2566 36.3055 25.5494 34.97 26.1251C34.8157 26.1969 34.6903 26.3191 34.6146 26.4715C34.5389 26.624 34.5173 26.7977 34.5534 26.9641C34.5894 27.1304 34.681 27.2796 34.8131 27.387C34.9451 27.4944 35.1098 27.5537 35.28 27.5551C35.3862 27.5547 35.4913 27.5343 35.59 27.4951C36.9026 26.916 38.3415 26.682 39.77 26.8151L40.45 28.6351C40.5194 28.8498 40.6279 29.0499 40.77 29.2251C38.8662 29.4413 37.1134 30.3659 35.86 31.8151C35.11 32.5651 34.69 32.9651 33.98 33.0451H33.48C31.99 32.2351 30.41 28.5151 30.37 24.0451V23.2651C30.37 19.0651 30.37 18.1951 28.83 16.0351C27.6 14.3351 25 14.3651 22.61 14.4051C21.7674 14.4512 20.9223 14.4043 20.09 14.2651C18.948 13.7921 17.9413 13.043 17.16 12.0851C17.212 11.8208 17.2488 11.5537 17.27 11.2851C17.46 8.82513 16.55 6.21513 14.58 3.51513C15.9719 2.72441 17.5395 2.29468 19.14 2.26513ZM12.89 4.60513C14.63 6.94513 15.43 9.13513 15.27 11.1451C15.1169 12.7133 14.5125 14.2034 13.53 15.4351C13.0612 16.0454 12.4933 16.5727 11.85 16.9951C9.88201 15.2592 8.35647 13.0788 7.4 10.6351C8.86279 8.31916 10.721 6.27815 12.89 4.60513ZM38.19 44.2651C27.36 43.4551 24 37.7951 21 32.8051C20.73 32.3451 20.46 31.9051 20.19 31.4651C19.2414 29.987 17.9607 28.7509 16.45 27.8551C15.45 27.2651 14.51 26.7551 13.55 26.2651C12.9433 25.9585 12.3333 25.6251 11.72 25.2651C9.70234 24.1472 7.81711 22.8054 6.1 21.2651C5.43 20.6551 4.77 20.0051 4.1 19.2651L3.72 18.8751C3.22623 18.3976 2.78994 17.8639 2.42 17.2851C2.2529 16.9726 2.13805 16.6348 2.08 16.2851C1.96446 15.7459 1.96167 15.1886 2.07181 14.6482C2.18195 14.1079 2.40263 13.5961 2.72 13.1451C3.39691 12.3509 4.31241 11.7966 5.33 11.5651L5.59 11.5151C6.17 13.1351 7.87 16.5151 12.71 20.3851C18.9 25.3151 23 29.0951 24.34 31.0451C24.54 31.3451 24.77 31.7351 25.04 32.1751C26.6 34.7851 29.51 39.6451 34.71 40.8651C37.8785 41.5133 41.106 41.8283 44.34 41.8051C46.512 41.8251 48.6812 41.6443 50.82 41.2651C48.41 43.0851 44.44 44.6951 38.19 44.2651Z" fill="black"/>
<path d="M5.28 15.0842C5.17865 14.9776 5.05695 14.8924 4.9221 14.8337C4.78726 14.775 4.642 14.7439 4.49493 14.7423C4.34785 14.7406 4.20195 14.7685 4.06585 14.8243C3.92974 14.8801 3.8062 14.9625 3.70254 15.0669C3.59887 15.1712 3.51718 15.2953 3.4623 15.4317C3.40741 15.5682 3.38046 15.7143 3.38302 15.8613C3.38558 16.0084 3.41761 16.1535 3.4772 16.2879C3.5368 16.4224 3.62276 16.5435 3.73 16.6442L9 21.8442C9.21101 22.0391 9.48988 22.1437 9.77701 22.1357C10.0641 22.1277 10.3367 22.0077 10.5366 21.8013C10.7364 21.595 10.8476 21.3187 10.8463 21.0314C10.8451 20.7442 10.7316 20.4688 10.53 20.2642L5.28 15.0842Z" fill="black"/>
</g>
<defs>
<clipPath id="clip0_3001_440">
<rect width="56.01" height="46.06" fill="white" transform="translate(0 0.264648)"/>
</clipPath>
</defs>
</svg>
