<svg width="56" height="41" viewBox="0 0 56 41" fill="none" xmlns="http://www.w3.org/2000/svg">
<g clip-path="url(#clip0_3001_391)">
<path d="M49.07 1.09367L48.77 0.263672L47.91 0.453672C27.2 4.90367 7.78 0.493672 7.59 0.453672L6.79 0.263672L6.45 1.02367C1.59 11.9237 0.1 24.3337 0 24.8537V25.2637L0.22 25.5737C5 32.2637 19.81 40.0937 20.44 40.4237L20.66 40.5337H35.14L35.37 40.4037C42.459 36.2093 49.0857 31.2787 55.14 25.6937L55.45 25.3937V24.9737C55.45 19.2637 49.33 1.83367 49.07 1.09367ZM53.35 24.6237C51.25 24.1837 43.59 22.8837 38.5 26.3137C35.3 28.4837 34.19 32.0737 33.86 34.9937C27.86 33.1037 23.86 33.9937 21.91 34.7837C21.49 31.4937 20 27.4237 15.48 25.5337C11.2682 23.6696 6.5421 23.3164 2.1 24.5337C2.98838 18.2566 4.48543 12.0808 6.57 6.09367C14.3744 7.0453 22.2278 7.53948 30.09 7.57367C36.3103 7.63918 42.5242 7.15732 48.66 6.13367C50.44 11.5637 53.24 20.5937 53.44 24.5437L53.35 24.6237ZM22.06 36.9137C23.24 36.3137 27.14 34.8537 33.74 37.0537C33.74 37.6237 33.74 38.1237 33.74 38.5337H22C22.0481 37.9951 22.0681 37.4543 22.06 36.9137ZM39.62 27.9737C43.22 25.5437 48.62 25.9037 51.44 26.3237C46.547 30.6043 41.3018 34.4646 35.76 37.8637C35.68 35.3537 36 30.4037 39.62 27.9737ZM8 2.57367C11.89 3.35367 29.1 6.34367 47.51 2.57367L48 4.26367C32.69 6.95367 12.48 4.79367 7.3 4.16367C7.51333 3.63701 7.74667 3.10701 8 2.57367ZM3.43 26.2637C7.21487 25.4529 11.1585 25.8445 14.71 27.3837C19.9 29.5537 20.22 35.2637 20.06 37.9437C16.76 36.1137 8 31.0337 3.43 26.2637Z" fill="black"/>
</g>
<defs>
<clipPath id="clip0_3001_391">
<rect width="55.45" height="40.27" fill="white" transform="translate(0 0.263672)"/>
</clipPath>
</defs>
</svg>
