<svg width="52" height="53" viewBox="0 0 52 53" fill="none" xmlns="http://www.w3.org/2000/svg">
<g clip-path="url(#clip0_3001_400)">
<path d="M51.8629 24.6765C51.9528 24.5326 52.0003 24.3662 52 24.1965V10.6651C52.0008 10.0529 51.785 9.46015 51.3909 8.99168C50.9967 8.52322 50.4496 8.20924 49.8463 8.10527C49.243 8.00129 48.6224 8.11403 48.0941 8.42354C47.5659 8.73305 47.1642 9.21939 46.96 9.79654H42.4686C42.2413 9.79674 42.0235 9.88718 41.8629 10.048C41.7803 10.1283 41.7146 10.2242 41.6694 10.3301C41.6243 10.4361 41.6007 10.55 41.6 10.6651V21.0651C41.5994 21.1805 41.6224 21.2947 41.6676 21.4009C41.7128 21.507 41.7793 21.6028 41.8629 21.6823C42.0235 21.843 42.2413 21.9335 42.4686 21.9337H46.8571V22.8823L45.2686 25.2594C45.1787 25.4033 45.1311 25.5697 45.1314 25.7394V28.0251H40.6743L39.8629 17.5565C39.8495 17.393 39.7944 17.2356 39.7029 17.0994L37.2229 13.808L36.3886 8.81368C36.3557 8.61086 36.2511 8.42659 36.0938 8.29443C35.9364 8.16228 35.7369 8.09104 35.5314 8.09368H32.1029C31.8974 8.09104 31.6978 8.16228 31.5405 8.29443C31.3832 8.42659 31.2786 8.61086 31.2457 8.81368L30.4229 13.808L27.9429 17.0994C27.8432 17.2323 27.7837 17.3909 27.7714 17.5565L26.9714 28.0251H26.0343C25.9109 28.0262 25.7892 28.0532 25.677 28.1044C25.5648 28.1556 25.4646 28.2298 25.3829 28.3223C25.3002 28.4167 25.2391 28.5279 25.2036 28.6483C25.1681 28.7686 25.159 28.8952 25.1771 29.0194L26.0914 34.9623H23.4057V20.1965C23.3997 18.5889 22.7584 17.0488 21.6216 15.9121C20.4848 14.7753 18.9448 14.134 17.3371 14.128V11.5337C17.3341 10.8435 17.0586 10.1825 16.5706 9.69449C16.0826 9.20647 15.4216 8.93097 14.7314 8.92797V5.4994H16.8686L18.7886 7.40797C19.2948 7.91415 19.9813 8.19852 20.6971 8.19852C21.413 8.19852 22.0995 7.91415 22.6057 7.40797C23.1119 6.90178 23.3963 6.21525 23.3963 5.4994C23.3963 4.78354 23.1119 4.09701 22.6057 3.59082L20.5714 1.53368C19.764 0.728012 18.672 0.27234 17.5314 0.26511H6.93714C6.47414 0.256336 6.01736 0.372757 5.61504 0.602078C5.21273 0.8314 4.8798 1.16511 4.65143 1.56797C4.42147 1.96158 4.30029 2.40925 4.30029 2.86511C4.30029 3.32097 4.42147 3.76864 4.65143 4.16225C4.8798 4.56511 5.21273 4.89882 5.61504 5.12814C6.01736 5.35746 6.47414 5.47388 6.93714 5.46511H8.66286V8.89368C8.32389 8.90081 7.98973 8.9752 7.67975 9.11254C7.36977 9.24987 7.09016 9.44741 6.85714 9.69368C6.36817 10.1813 6.09276 10.8431 6.09143 11.5337V14.128C4.47983 14.128 2.93391 14.7666 1.7922 15.904C0.65049 17.0414 0.00604726 18.585 1.22143e-10 20.1965L1.22143e-10 49.6708C-3.31502e-06 50.0125 0.0674767 50.3508 0.198566 50.6663C0.329655 50.9818 0.521771 51.2683 0.763885 51.5093C1.006 51.7504 1.29334 51.9412 1.60941 52.0709C1.92549 52.2006 2.26407 52.2666 2.60571 52.2651H46.1714C46.7781 52.2803 47.37 52.0776 47.84 51.6937C48.3104 51.3042 48.6298 50.7624 48.7429 50.1623L52 28.9965C52.0181 28.8724 52.0091 28.7458 51.9736 28.6254C51.9381 28.5051 51.8769 28.3938 51.7943 28.2994C51.7126 28.207 51.6124 28.1328 51.5002 28.0816C51.3879 28.0304 51.2662 28.0034 51.1429 28.0023H50.2857V27.0537L51.8629 24.6765ZM46.8571 16.7337H43.4286V14.9965H46.8571V16.7337ZM46.8571 11.5337V13.2708H43.4286V11.5337H46.8571ZM43.4286 20.1965V18.4708H46.8571V20.1965H43.4286ZM34.8914 9.79654L35.4743 13.2251H32.2286L32.8 9.79654H34.8914ZM31.7257 14.9965H36.0571L37.36 16.7337H30.3314L31.7257 14.9965ZM29.4971 18.4251H38.2971L39.0286 27.9565H28.7429L29.4971 18.4251ZM6.06857 2.87082C6.06857 2.64046 6.16008 2.41954 6.32297 2.25665C6.48586 2.09376 6.70678 2.00225 6.93714 2.00225H17.5314C17.8819 1.99574 18.2301 2.05908 18.5559 2.18859C18.8816 2.31809 19.1783 2.51116 19.4286 2.75654L21.3829 4.83654C21.5474 5.02172 21.635 5.26279 21.6277 5.51043C21.6205 5.75807 21.5188 5.99357 21.3436 6.16875C21.1685 6.34393 20.933 6.44556 20.6853 6.45285C20.4377 6.46014 20.1966 6.37254 20.0114 6.20797L17.84 4.04797C17.7714 3.94791 17.6815 3.86427 17.5768 3.80302C17.4721 3.74177 17.3551 3.70443 17.2343 3.69368H6.94857C6.72018 3.6937 6.50097 3.60376 6.3384 3.44334C6.17584 3.28291 6.08301 3.06491 6.08 2.83654L6.06857 2.87082ZM10.4 5.46511H13.0057V8.89368H10.4V5.46511ZM7.80571 11.5337C7.80569 11.3053 7.89563 11.0861 8.05606 10.9235C8.21649 10.761 8.43448 10.6681 8.66286 10.6651H14.7314C14.9618 10.6651 15.1827 10.7566 15.3456 10.9195C15.5085 11.0824 15.6 11.3033 15.6 11.5337V14.128H7.80571V11.5337ZM1.73714 49.6708V20.1965C1.73714 19.0478 2.19349 17.9461 3.00579 17.1338C3.81809 16.3215 4.91981 15.8651 6.06857 15.8651H17.3371C17.9098 15.8591 18.478 15.9666 19.0088 16.1816C19.5396 16.3966 20.0225 16.7147 20.4295 17.1175C20.8366 17.5203 21.1597 17.9998 21.3803 18.5283C21.6008 19.0569 21.7143 19.6239 21.7143 20.1965V34.9394H19.0743V23.6708C19.0584 22.9788 18.7759 22.3196 18.2857 21.8308C17.7981 21.3419 17.1363 21.0664 16.4457 21.0651H6.93714C6.24699 21.0681 5.58596 21.3436 5.09795 21.8316C4.60993 22.3196 4.33444 22.9807 4.33143 23.6708V42.7337C4.33444 43.4238 4.60993 44.0849 5.09795 44.5729C5.58596 45.0609 6.24699 45.3364 6.93714 45.3394H13.0057V47.9337C13.0006 48.8795 13.3102 49.8002 13.8857 50.5508H2.60571C2.37536 50.5508 2.15443 50.4593 1.99154 50.2964C1.82865 50.1335 1.73714 49.9126 1.73714 49.6823V49.6708ZM13.0057 39.2708V43.6022H6.93714C6.70678 43.6022 6.48586 43.5107 6.32297 43.3479C6.16008 43.185 6.06857 42.964 6.06857 42.7337V23.6708C6.06857 23.4405 6.16008 23.2195 6.32297 23.0567C6.48586 22.8938 6.70678 22.8023 6.93714 22.8023H16.4686C16.6989 22.8023 16.9199 22.8938 17.0827 23.0567C17.2456 23.2195 17.3371 23.4405 17.3371 23.6708V34.9394C16.1884 34.9394 15.0867 35.3957 14.2744 36.208C13.4621 37.0203 13.0057 38.1221 13.0057 39.2708ZM17.3371 50.5508C16.647 50.5478 15.986 50.2723 15.4979 49.7843C15.0099 49.2963 14.7344 48.6353 14.7314 47.9451V39.2708C14.7344 38.5807 15.0099 37.9196 15.4979 37.4316C15.986 36.9436 16.647 36.6681 17.3371 36.6651H32.9371C33.6277 36.6664 34.2895 36.9418 34.7771 37.4308C35.2588 37.9224 35.5294 38.5826 35.5314 39.2708V47.9337C35.5345 48.2763 35.4696 48.6161 35.3406 48.9335C35.2115 49.2509 35.0209 49.5396 34.7797 49.7829C34.5385 50.0262 34.2515 50.2194 33.9352 50.3512C33.619 50.483 33.2798 50.5508 32.9371 50.5508H17.3371ZM47.0514 49.8994C47.0085 50.0917 46.8989 50.2626 46.742 50.3819C46.5851 50.5011 46.3911 50.561 46.1943 50.5508H36.3771C36.9583 49.8069 37.2723 48.8891 37.2686 47.9451V39.2708C37.2686 38.1221 36.8122 37.0203 35.9999 36.208C35.1876 35.3957 34.0859 34.9394 32.9371 34.9394H27.8171L27.0171 29.7394H50.1257L47.0514 49.8994ZM46.8571 28.0023V26.0023L48.4457 23.6251C48.5441 23.4845 48.596 23.3167 48.5943 23.1451V10.6651C48.6389 10.4743 48.7468 10.3042 48.9003 10.1825C49.0539 10.0607 49.2441 9.99449 49.44 9.99449C49.6359 9.99449 49.8261 10.0607 49.9797 10.1825C50.1332 10.3042 50.2411 10.4743 50.2857 10.6651V23.9337L48.6857 26.3108C48.5923 26.4538 48.5409 26.6201 48.5371 26.7908V28.0023H46.8571ZM32.0686 39.2708H18.2057C18.0912 39.2693 17.9776 39.2907 17.8715 39.3338C17.7654 39.3769 17.6691 39.4408 17.5881 39.5218C17.5072 39.6028 17.4432 39.6991 17.4001 39.8052C17.357 39.9113 17.3356 40.0249 17.3371 40.1394V47.1222C17.3364 47.2366 17.3582 47.35 17.4013 47.4559C17.4445 47.5618 17.5081 47.6581 17.5886 47.7394C17.7534 47.9009 17.975 47.9912 18.2057 47.9908H32.0686C32.2993 47.9912 32.5209 47.9009 32.6857 47.7394C32.7662 47.6581 32.8298 47.5618 32.873 47.4559C32.9161 47.35 32.9379 47.2366 32.9371 47.1222V40.1394C32.9387 40.0249 32.9173 39.9113 32.8742 39.8052C32.8311 39.6991 32.7671 39.6028 32.6862 39.5218C32.6052 39.4408 32.5088 39.3769 32.4028 39.3338C32.2967 39.2907 32.1831 39.2693 32.0686 39.2708ZM31.2 46.208H19.0743V41.008H31.2V46.208Z" fill="black"/>
</g>
<defs>
<clipPath id="clip0_3001_400">
<rect width="52" height="52" fill="white" transform="translate(0 0.264648)"/>
</clipPath>
</defs>
</svg>
